HIERARCHY
ROOT Hips
{
	OFFSET -14.64140 90.27770 -84.91600
	CHANNELS 6 Xposition Yposition Zposition Zrotation Xrotation Yrotation
	JOINT Spine
	{
		OFFSET 0.00000 13.20850 -1.60436
		CHANNELS 3 Zrotation Xrotation Yrotation
		JOINT Spine1
		{
			OFFSET 0.00000 8.61716 0.00000
			CHANNELS 3 Zrotation Xrotation Yrotation
			JOINT Spine2
			{
				OFFSET 0.00000 8.61717 0.00000
				CHANNELS 3 Zrotation Xrotation Yrotation
				JOINT Spine3
				{
					OFFSET 0.00000 8.61717 0.00000
					CHANNELS 3 Zrotation Xrotation Yrotation
					JOINT Neck
					{
						OFFSET 0.00000 11.07920 1.10792
						CHANNELS 3 Zrotation Xrotation Yrotation
						JOINT Neck1
						{
							OFFSET 0.00000 7.08032 0.00000
							CHANNELS 3 Zrotation Xrotation Yrotation
							JOINT Head
							{
								OFFSET 0.00000 7.08031 0.00000
								CHANNELS 3 Zrotation Xrotation Yrotation
								End site
								{
									OFFSET 0.00000 0.00000 0.00000
								}
							}
						}
					}
					JOINT RightShoulder
					{
						OFFSET -0.01000 7.91373 5.19711
						CHANNELS 3 Zrotation Xrotation Yrotation
						JOINT RightArm
						{
							OFFSET -18.41580 0.00000 0.00000
							CHANNELS 3 Zrotation Xrotation Yrotation
							JOINT RightForeArm
							{
								OFFSET -29.11090 0.00000 0.00000
								CHANNELS 3 Zrotation Xrotation Yrotation
								JOINT RightHand
								{
									OFFSET -24.65040 0.00000 0.00000
									CHANNELS 3 Zrotation Xrotation Yrotation
									JOINT RightHandThumb1
									{
										OFFSET -5.35114 -0.85590 3.97906
										CHANNELS 3 Zrotation Xrotation Yrotation
										JOINT RightHandThumb2
										{
											OFFSET -4.52789 0.00000 0.00000
											CHANNELS 3 Zrotation Xrotation Yrotation
											JOINT RightHandThumb3
											{
												OFFSET -2.46976 0.00000 0.00000
												CHANNELS 3 Zrotation Xrotation Yrotation
												End site
												{
													OFFSET 0.00000 0.00000 0.00000
												}
											}
										}
									}
									JOINT RightHandIndex1
									{
										OFFSET -14.26970 0.00000 2.88139
										CHANNELS 3 Zrotation Xrotation Yrotation
										JOINT RightHandIndex2
										{
											OFFSET -5.48836 0.00000 0.00000
											CHANNELS 3 Zrotation Xrotation Yrotation
											JOINT RightHandIndex3
											{
												OFFSET -3.01859 0.00000 0.00000
												CHANNELS 3 Zrotation Xrotation Yrotation
												End site
												{
													OFFSET 0.00000 0.00000 0.00000
												}
											}
										}
									}
									JOINT RightHandMiddle1
									{
										OFFSET -14.26970 0.00000 -0.09147
										CHANNELS 3 Zrotation Xrotation Yrotation
										JOINT RightHandMiddle2
										{
											OFFSET -6.17441 0.00000 0.00000
											CHANNELS 3 Zrotation Xrotation Yrotation
											JOINT RightHandMiddle3
											{
												OFFSET -3.56743 0.00000 0.00000
												CHANNELS 3 Zrotation Xrotation Yrotation
												End site
												{
													OFFSET 0.00000 0.00000 0.00000
												}
											}
										}
									}
									JOINT RightHandRing1
									{
										OFFSET -12.69180 0.00000 -3.06433
										CHANNELS 3 Zrotation Xrotation Yrotation
										JOINT RightHandRing2
										{
											OFFSET -5.62556 0.00000 0.00000
											CHANNELS 3 Zrotation Xrotation Yrotation
											JOINT RightHandRing3
											{
												OFFSET -3.56744 0.00000 0.00000
												CHANNELS 3 Zrotation Xrotation Yrotation
												End site
												{
													OFFSET 0.00000 0.00000 0.00000
												}
											}
										}
									}
									JOINT RightHandPinky1
									{
										OFFSET -11.11390 0.00000 -6.03719
										CHANNELS 3 Zrotation Xrotation Yrotation
										JOINT RightHandPinky2
										{
											OFFSET -4.52789 0.00000 0.00000
											CHANNELS 3 Zrotation Xrotation Yrotation
											JOINT RightHandPinky3
											{
												OFFSET -2.46976 0.00000 0.00000
												CHANNELS 3 Zrotation Xrotation Yrotation
												End site
												{
													OFFSET 0.00000 0.00000 0.00000
												}
											}
										}
									}
								}
							}
						}
					}
					JOINT LeftShoulder
					{
						OFFSET 0.01000 7.91373 5.19711
						CHANNELS 3 Zrotation Xrotation Yrotation
						JOINT LeftArm
						{
							OFFSET 18.41580 0.00000 0.00000
							CHANNELS 3 Zrotation Xrotation Yrotation
							JOINT LeftForeArm
							{
								OFFSET 29.11090 0.00000 0.00000
								CHANNELS 3 Zrotation Xrotation Yrotation
								JOINT LeftHand
								{
									OFFSET 24.65040 0.00000 0.00000
									CHANNELS 3 Zrotation Xrotation Yrotation
									JOINT LeftHandThumb1
									{
										OFFSET 5.35114 -0.85590 3.97906
										CHANNELS 3 Zrotation Xrotation Yrotation
										JOINT LeftHandThumb2
										{
											OFFSET 4.52789 0.00000 0.00000
											CHANNELS 3 Zrotation Xrotation Yrotation
											JOINT LeftHandThumb3
											{
												OFFSET 2.46977 0.00000 0.00000
												CHANNELS 3 Zrotation Xrotation Yrotation
												End site
												{
													OFFSET 0.00000 0.00000 0.00000
												}
											}
										}
									}
									JOINT LeftHandIndex1
									{
										OFFSET 14.26970 0.00000 2.88139
										CHANNELS 3 Zrotation Xrotation Yrotation
										JOINT LeftHandIndex2
										{
											OFFSET 5.48836 0.00000 0.00000
											CHANNELS 3 Zrotation Xrotation Yrotation
											JOINT LeftHandIndex3
											{
												OFFSET 3.01859 0.00000 0.00000
												CHANNELS 3 Zrotation Xrotation Yrotation
												End site
												{
													OFFSET 0.00000 0.00000 0.00000
												}
											}
										}
									}
									JOINT LeftHandMiddle1
									{
										OFFSET 14.26970 0.00000 -0.09147
										CHANNELS 3 Zrotation Xrotation Yrotation
										JOINT LeftHandMiddle2
										{
											OFFSET 6.17440 0.00000 0.00000
											CHANNELS 3 Zrotation Xrotation Yrotation
											JOINT LeftHandMiddle3
											{
												OFFSET 3.56744 0.00000 0.00000
												CHANNELS 3 Zrotation Xrotation Yrotation
												End site
												{
													OFFSET 0.00000 0.00000 0.00000
												}
											}
										}
									}
									JOINT LeftHandRing1
									{
										OFFSET 12.69180 0.00000 -3.06433
										CHANNELS 3 Zrotation Xrotation Yrotation
										JOINT LeftHandRing2
										{
											OFFSET 5.62556 0.00000 0.00000
											CHANNELS 3 Zrotation Xrotation Yrotation
											JOINT LeftHandRing3
											{
												OFFSET 3.56744 0.00000 0.00000
												CHANNELS 3 Zrotation Xrotation Yrotation
												End site
												{
													OFFSET 0.00000 0.00000 0.00000
												}
											}
										}
									}
									JOINT LeftHandPinky1
									{
										OFFSET 11.11390 0.00000 -6.03719
										CHANNELS 3 Zrotation Xrotation Yrotation
										JOINT LeftHandPinky2
										{
											OFFSET 4.52789 0.00000 0.00000
											CHANNELS 3 Zrotation Xrotation Yrotation
											JOINT LeftHandPinky3
											{
												OFFSET 2.46976 0.00000 0.00000
												CHANNELS 3 Zrotation Xrotation Yrotation
												End site
												{
													OFFSET 0.00000 0.00000 0.00000
												}
											}
										}
									}
								}
							}
						}
					}
					JOINT pCube4
					{
						OFFSET 0.00000 10.91090 1.10792
						CHANNELS 3 Zrotation Xrotation Yrotation
						End site
						{
							OFFSET 0.00000 0.00000 0.00000
						}
					}
				}
			}
		}
	}
	JOINT RightUpLeg
	{
		OFFSET -9.98441 0.00000 0.00000
		CHANNELS 3 Zrotation Xrotation Yrotation
		JOINT RightLeg
		{
			OFFSET 0.00000 -42.11790 0.00000
			CHANNELS 3 Zrotation Xrotation Yrotation
			JOINT RightFoot
			{
				OFFSET 0.00000 -45.00020 -0.00001
				CHANNELS 3 Zrotation Xrotation Yrotation
				JOINT RightForeFoot
				{
					OFFSET 0.00000 -3.74820 0.00000
					CHANNELS 3 Zrotation Xrotation Yrotation
					JOINT RightToeBase
					{
						OFFSET 0.00000 0.06325 14.43120
						CHANNELS 3 Zrotation Xrotation Yrotation
						End site
						{
							OFFSET 0.00000 0.00000 0.00000
						}
					}
				}
			}
		}
	}
	JOINT LeftUpLeg
	{
		OFFSET 9.98441 0.00000 0.00000
		CHANNELS 3 Zrotation Xrotation Yrotation
		JOINT LeftLeg
		{
			OFFSET 0.00000 -42.11800 0.00000
			CHANNELS 3 Zrotation Xrotation Yrotation
			JOINT LeftFoot
			{
				OFFSET 0.00000 -45.00070 0.00000
				CHANNELS 3 Zrotation Xrotation Yrotation
				JOINT LeftForeFoot
				{
					OFFSET 0.00000 -3.74824 0.00000
					CHANNELS 3 Zrotation Xrotation Yrotation
					JOINT LeftToeBase
					{
						OFFSET 0.00000 0.06325 14.43110
						CHANNELS 3 Zrotation Xrotation Yrotation
						End site
						{
							OFFSET 0.00000 0.00000 0.00000
						}
					}
				}
			}
		}
	}
}
MOTION
Frames: 4
Frame Time: 0.050000
0.011317754815043152 0.008161974413062968 0.012157546116951648 0.023903001823606492 -0.012336978106083021 0.01781670918693393 -3.322040157930784 1.4815429531505038 -0.7504705386065971 -1.010486696024327 3.596834294669597 0.32729554033318364 -1.288992332458107 -2.4604877204867357 -2.0192949965712783 -1.2619994162463257 -0.13550701517645053 -0.8832951868729801 -0.8832254757080459 15.758806788069792 2.015475054107331 0.2076607616597039 1.2074939725349811 4.316312241666238 -0.46580761299781537 -13.683181934501633 0.3665282834028654 -11.716747414920835 3.9576854183320815 -11.321137187092646 66.25333077060668 -11.198670843697387 46.30324762188117 24.391124990807285 -2.791917921089263 97.66984195470074 10.44748638568675 -0.3875977135836639 -0.3292680900843486 4.536870644140295 -0.13164493131247765 -1.591265960818448 -0.007210300923921661 0.013501301549867627 -56.23542033942041 -0.03632180157198692 -0.004809772479106476 -56.2393084784223 -38.78019077660793 -0.011224578549891392 -0.012059904995987726 0.01345538126157109 -0.00944537996665908 -0.025501027129387732 -0.0338977816307164 -0.03582267209910716 0.0299053552325549 -36.71783695925551 -0.040086389034482584 -0.012393551134458357 0.017759565477051212 0.036242366293024665 -0.03705882919151111 -0.022796516414125726 0.03209961336113002 0.021194124065063474 -19.771229263116076 -0.02715890337243859 -0.017779066239621447 0.03405252182691 -0.04847451878153362 -0.04101363853553648 0.01297170561718793 -0.04720856553531525 -0.04015077987042125 24.066225778435697 -0.0333401366121327 -0.0015903582251946284 28.870820508969345 -0.04734417394136702 0.031092131671840186 28.880256790041752 -0.00016094616953928094 -0.008524110145738664 14.782821783974997 3.3525704553463838 9.805219407433746 -62.82992426392743 5.268203316578468 -51.19592543161239 -53.549981032071955 0.8248740004869137 -94.50925861292151 -5.907070117719112 0.5005633782648364 -0.9474140360527578 -0.4458206643589205 0.07670355029457666 -8.1183448151769 0.0015017785999088434 0.006916222246552214 44.58942158876493 -0.03434170526456066 -0.041538777206149124 44.54190092510632 12.461525373120898 0.026874747761271526 0.024105787656913933 -0.0081164701540821 -0.0032981150359071127 0.0386373192935684 -0.03393502872662988 0.035706553668031105 0.02641468679379668 11.105604683916807 -0.035625358904832566 0.00965206965904226 0.03371096564505799 0.010656868744158407 -0.005667049357317562 -0.04315851176575214 -0.016613120944079393 -0.038889933992691264 4.797790790786612 -0.03702204106053953 0.02066873120908455 0.020329107093005224 -0.029250256297390826 0.01369959930792132 -0.0098661629545378 0.047993018688088716 -0.0052550427032979265 -5.607396696651504 -0.0027013079290032957 -0.00851166679084008 -6.721331014516641 0.0007276673701759579 -0.002533429636310416 -6.733919578768791 -0.023624804698058645 -0.04229664417409732 -0.0019184869550227203 0.009725515355109429 0.037168057614728835 8.085323648089544 3.520011408365403 -19.238190975478993 -0.03551051762626376 10.405102238757665 -0.025487058231552246 -5.611379141322385 -15.640164959404254 3.2404236973573424 0.030659212004992314 0.016830469062791863 0.04146020625626711 0.042044524402903134 4.693459476274511 -0.028909656286762928 12.4816563558402 -8.241489914608493 6.912405052645518 -0.00642450643040754 46.338338130476714 -0.018235329676068907 -4.355719943526205 -14.76281275743635 -3.823488576606819 0.006566765854424439 -0.044428173442232974 -0.03673990884278472 0.010510941595426994 -10.759615638386752 0.02317759080556123 
-0.04123744484158517 0.015081585853971092 -0.011935891095324969 -0.003037093753577491 -0.018881319105173492 0.005879242411010882 -3.4216559658180024 1.4084124262991415 -0.6997754317682436 -1.0612724468049932 3.5888235935429025 0.3889492661566191 -1.2877362146238225 -2.463750760186437 -2.0878353945605452 -1.3289364182531822 -0.025946728010497702 -0.9473178581175621 -0.8667045782488171 15.760115780888222 2.3432237901055584 0.25490280497183365 1.3084814172877421 5.0735302900035535 -0.5751257416976627 -13.447971958595886 0.44599431477469687 -11.657542791904623 3.9536717461930446 -11.377542254283883 65.72102523945985 -10.735765679211529 45.11223162585573 20.96957980129258 -3.2838259584411786 97.89269429914167 10.102773031884313 -0.4068835993315246 -0.5306451550989558 4.502725679589088 -0.15797727508241222 -1.563242912771172 -0.03693196818925864 0.021319993290871697 -56.20162151624868 0.027256313751245518 -0.0010169138955737275 -56.19937544273851 -38.78025999776121 0.04147565680390412 0.03168918580103783 0.02674010608314445 -0.022554607154528943 -0.03649592546926852 -0.048789889437415704 0.03918668724727505 -0.02494607519018854 -36.67025214143807 -0.018229515966388707 -0.023923928738616734 0.027014116991512366 0.012047760678521348 0.004605411244254096 -0.018286627580037424 -0.009103850461485534 -0.04242857897185974 -19.71038095153254 0.0498100985491775 -0.013831715820227788 -0.0015958672373923976 -0.036971588320480836 0.017580337824944055 -0.014847832518014057 -0.007668208296834603 0.04409533730211438 24.015118591069726 -0.009215165447334256 -0.006561462108600812 28.85352759708936 -0.018770169971238388 0.03579684175767482 28.849071293940263 -0.045671002481194954 -0.019376412579423245 14.781017068457508 3.383321309422188 9.859272387832545 -62.611719608011796 5.710409340747283 -50.72139652038833 -54.14232898294106 1.375703868219048 -93.47914035503177 -6.136478394253253 0.007809203438676509 -0.42229205183195584 -0.4554328179720158 0.05987386819900399 -8.144934288991651 -0.03137789165851128 -0.029978061802401278 44.607362419439056 -0.030638244997420013 -0.015417283223598617 44.59261637638047 12.49149461655198 0.02914093778976795 0.00828940908919674 -0.010113120726123893 -0.02357823762627455 -0.023614893428300743 -0.041888678264519495 -0.0260861740135112 0.010893963495647982 11.101255679575116 0.044098467899183084 0.006993519517749542 0.006441078215862952 -0.019169754814265402 -0.008397728098083496 -0.00906719905160113 0.01924161004602037 0.01648531381157818 4.758359965113562 0.032402071203613346 0.01608384160819571 -0.007317204153642685 0.04968957435277248 0.03434510950661669 0.0423266129069151 -0.017438864884219352 -0.013824837462478964 -5.598747990508515 -0.03347221075226251 -0.017945606236977944 -6.725726788325095 -0.029188853347200786 0.015160992895396864 -6.693134497810189 -0.009853271298032184 0.005744207508838225 0.04080769576059759 0.020555940635628538 0.03743971492632518 8.017466302911217 3.4506131640042677 -19.183408202677228 -0.04451399360924615 10.385255711426273 0.05152927864500052 -5.66024210164511 -15.702530183009056 3.1832309563948002 0.022555221314387194 0.015577079976843237 -0.02263158657312935 -0.04429430368343553 4.741159340271638 0.035969373210813754 12.439371924676047 -8.196514865703179 6.864823748205952 0.01870169838255037 46.40318805299488 0.0006443066473257283 -4.355353608531044 -14.783089791089658 -3.793967978475627 -0.017711324615486804 -0.01643403624044689 -0.017892724722517784 0.023338752629535265 -10.703559297557565 -0.00029469233227923276 
-0.01518798288836 -0.03627033424007823 -0.007972761710719178 -0.016642819820127396 0.008534523743787022 -0.004610678011943707 -3.5108356552666464 1.334911554935677 -0.7700835615146946 -1.0015763968479972 3.530146614054393 0.3599079286809835 -1.244408365874923 -2.3877160882929793 -2.1736302435710235 -1.3183530443828637 -0.02640784116978869 -0.9173955657998066 -0.9452851085375888 15.68976587898147 2.6213375837562944 0.24586156928269118 1.4358438730304395 5.805841802452451 -0.655927118070373 -13.208008365779396 0.5441663291589101 -11.52709154282278 3.9219411521316556 -11.549921896561969 64.99409160059784 -9.748765051685588 43.25259731193912 17.50643121893307 -3.60836781860907 98.1056054541646 9.874545205482416 -0.35563079976515594 -0.7399180559099903 4.565594422669801 -0.08402234039367433 -1.580019148921901 0.04388536831152448 -0.04712667863729457 -56.20148140386428 0.005597639946240782 -0.04390911142107065 -56.224403834579014 -38.733861282573265 -0.043542389409339605 0.015893104671943496 -0.030019661751450398 -0.03500075648658573 0.02460929227096978 0.026933343367449934 -0.039819334178754384 -0.01113290315892543 -36.69334915837015 -0.0017556878571516714 -0.014084559582430151 -0.01502895078304425 -0.004580013010522957 0.020348235845963576 -0.03637979360348351 -0.008676950749272445 0.007430432891927959 -19.805465420234512 0.025489460076673076 -0.012111356492518172 -0.017727857847470233 -0.04352016181982321 0.03656995510422925 0.007706280662534477 -0.018481204704795893 0.010598879901750605 24.057976857605077 0.04042252308291207 0.019502946833589763 28.85019514924752 0.023717083171402465 0.0466874083594903 28.834214013576435 -0.032650496252341114 -0.012362485437222763 14.609097498438482 3.309568732792534 9.870239058384705 -62.579681148222555 6.371368469464444 -49.7068922388985 -56.16577114518845 2.428673968431197 -92.40317614751952 -5.989549623441262 -0.38550866442749976 0.020898494512452737 -0.4555949642890945 0.028061849482539154 -8.129701381045798 -0.006184254807614656 0.04346703915353085 44.55856739739049 0.01889390312435454 0.029066647455301624 44.52564193942415 12.455299567666199 0.002628227200610176 0.012510765865819149 -0.016454137606177838 -0.04599346318773021 -0.0195907958249965 -0.033448652587367705 -0.029419699546497913 0.010636336724116615 11.132990736844 -0.022893844524266932 -0.011860065335261889 0.026335810845885495 0.03995581717099953 -0.045765815838108015 -0.009508320651484499 0.040258984688764585 0.0010700433674757186 4.819028437619768 0.0015357800859628116 -0.015096444270530317 -0.02691513537273201 -0.03565878609965797 -0.024421443213320217 -0.0043225083778279045 0.03798488899420919 0.044709912039990626 -5.615173678097638 0.006713508915285295 0.04296103168566543 -6.743160109460398 0.02038777323021436 -0.04853369134493837 -6.733965657647552 -0.013394407860727865 -0.038275600124204626 -0.01086883064052147 -0.04754557439595242 -0.00415990389261656 8.082022029888364 3.516349631882703 -19.199671173337013 -0.019769477924027987 10.405134077992452 0.04390195997152717 -5.607458007769287 -15.694507196181709 3.208890543241017 0.024965869846363637 0.03509782928845041 -0.029875595265004613 0.01929270803016287 4.7396871328619685 -0.035134673121114825 12.45731213521659 -8.243393966562387 6.919998273865679 -0.02420213061945138 46.37711948153677 -0.03169406613373062 -4.367321079462622 -14.706111120328439 -3.8258387050620852 -0.01537775077635981 -0.02559686008539982 -0.013572589010519092 0.03146829873061172 -10.732617121451577 -0.02058806358407197 
0.04735095115347676 -0.03230109630463627 -0.04695835594812292 0.017024238927382897 -0.03507404715208944 0.03604867952632048 -3.5689060342756354 1.174938904520216 -0.6960548930871164 -1.1171731946579815 3.56065213660004 0.3750251126343484 -1.2468923923980182 -2.4120856661143697 -2.2402910647103598 -1.2932506412569014 0.05875756393886675 -0.9219303615234301 -0.9573864650725974 15.715170921640931 2.8127575198561434 0.3014699327203904 1.5227592578888427 6.360348738240987 -0.7494890428323584 -12.929563297078218 0.5384388472427506 -11.362571512618281 3.9225288563831633 -11.687306326176827 64.07291060317958 -9.151707273387517 41.431661981911894 14.402106644594342 -3.9122876972344907 98.66027932936753 9.653442073743545 -0.39271137530563516 -0.7453192438086482 4.536334102603274 -0.15220200364781705 -1.5822844260180862 -0.023436841412965523 0.022784095220680436 -56.196334621677444 0.018718164272479788 -0.006340905993222959 -56.28205250091838 -38.7438864313601 -0.0310430937502011 0.02454987792304881 -0.04895147623075481 0.003885520972473529 0.037092021327171286 0.045833790248934754 0.0063503683989965835 0.007606541864895154 -36.74000387564571 -0.0009763354318535049 -0.016784892300270245 -0.0013542253760183546 0.01106874488105078 0.03496944113167732 -0.01751093026923628 0.02395645988636113 -0.00951712404106369 -19.71094479637177 0.038888375298892906 0.0430031323011238 -0.03877189252334788 0.018363375165234484 -0.009537178410548278 -0.02710739117043109 0.039775366787634436 -0.03495643099380649 24.050110117357963 0.0381587393378816 -0.005316668556805626 28.89806473438871 0.04950692618128075 -0.0030935236051110805 28.85549117267371 0.024440585595916383 -0.0008234623356083092 14.447395468501059 3.224521142029166 10.018216769182914 -62.37646765497597 7.072773633480557 -48.42265728524212 -58.551589741713805 3.6909905953093953 -91.77993016013376 -5.634831684211903 -0.5887604453773205 0.40797243961643015 -0.45583284772273297 0.02347286523925239 -8.100266675363128 -0.026911531107753524 -0.020233202217570148 44.5956558739482 -0.04817023653236784 -0.037281083125881416 44.60818120285461 12.454963268354554 0.009248315565766716 0.012545755842879295 -0.04703585283301765 -0.009946306867533767 -0.03318077248480618 -0.01884770019760295 0.02554115990186994 -0.011632890797149326 11.150749826308585 0.030441289629868005 -0.03846727902944571 -0.046396995170203 0.022019098781629238 -0.03620578949796013 -0.028670721314483172 -0.004457228323553763 -0.04326163555306037 4.772283008158614 -0.029878261945086314 -0.010168379239794445 -0.015352109607401299 0.020853208344878332 -0.031297086969837205 0.04865404347032133 0.04378093328519865 -0.03036013896524372 -5.614497690530669 -0.04002629064251802 0.04717731026816572 -6.745113935873111 0.02338300851353937 -0.006656803085141926 -6.6735346283711525 -0.027869082217410225 -0.03408398694093242 0.027662473391339527 0.04363040809166492 0.0294451940396058 8.058413419826932 3.4452226050339765 -19.241667872149147 0.031090191669853127 10.374303581321145 0.018689971785279362 -5.588695698766842 -15.695037327879179 3.1673653620417954 -0.0011848628938473035 -0.011746579118872991 0.044207383434098496 0.036514475387791 4.684354527801415 -0.0421273697596665 12.477129376129023 -8.252750956962165 6.86191240581765 0.016195820071960007 46.34360491630281 0.003940305128034166 -4.287357963013045 -14.727319652876377 -3.839709250727048 0.04669519054966916 -0.02602007951853809 -0.032332174281273274 0.04141380038430779 -10.759404365357037 -0.036247436762740136 
